<svg width="24" height="24" viewBox="0 0 24 24" fill="none" xmlns="http://www.w3.org/2000/svg">
<path d="M3.70803 7.25219H5.1241V20.4173C5.12465 20.5961 5.19943 20.7675 5.33209 20.894C5.46475 21.0205 5.64452 21.0918 5.83214 21.0923H18.8138C19.0014 21.0918 19.1811 21.0205 19.3138 20.894C19.4465 20.7675 19.5212 20.5961 19.5218 20.4173V7.25219H21.292C21.4798 7.25219 21.6599 7.18107 21.7927 7.05447C21.9255 6.92787 22.0001 6.75616 22.0001 6.57713C22.0001 6.39809 21.9255 6.22638 21.7927 6.09978C21.6599 5.97318 21.4798 5.90206 21.292 5.90206H17.9168C17.8917 4.75353 17.4357 3.6516 16.6317 2.79602C15.6511 1.80636 14.223 1.29999 12.3703 1.29999C10.5176 1.29999 9.12454 1.80636 8.23987 2.8077C7.5161 3.68511 7.1625 4.78881 7.2485 5.90206H3.70803C3.61505 5.90206 3.52298 5.91952 3.43708 5.95345C3.35118 5.98737 3.27313 6.0371 3.20738 6.09978C3.14163 6.16247 3.08948 6.23689 3.0539 6.31879C3.01831 6.40069 3 6.48847 3 6.57713C3 6.66578 3.01831 6.75356 3.0539 6.83546C3.08948 6.91737 3.14163 6.99178 3.20738 7.05447C3.27313 7.11716 3.35118 7.16688 3.43708 7.20081C3.52298 7.23473 3.61505 7.25219 3.70803 7.25219ZM9.30207 3.67426C9.90401 2.98779 10.9306 2.6504 12.3587 2.6504C13.7983 2.6504 14.8842 3.01059 15.5805 3.70817C16.1406 4.31725 16.4617 5.09273 16.4891 5.90235H8.66457C8.57757 5.10979 8.805 4.3149 9.30207 3.67426ZM18.1057 7.25219V19.7419H6.53927V7.25219H18.1057Z" fill="#429EFF"/>
<path d="M10.0801 17.8288C10.2677 17.8283 10.4475 17.757 10.5802 17.6305C10.7128 17.504 10.7876 17.3326 10.7881 17.1537V9.39006C10.7881 9.21102 10.7135 9.03932 10.5808 8.91272C10.448 8.78612 10.2679 8.715 10.0801 8.715C9.89232 8.715 9.71223 8.78612 9.57945 8.91272C9.44667 9.03932 9.37207 9.21102 9.37207 9.39006V17.1537C9.37262 17.3326 9.4474 17.504 9.58006 17.6305C9.71272 17.757 9.89249 17.8283 10.0801 17.8288Z" fill="#429EFF"/>
<path d="M14.5655 17.8288C14.7531 17.8283 14.9328 17.757 15.0655 17.6305C15.1982 17.504 15.2729 17.3326 15.2735 17.1538V9.39009C15.2735 9.21105 15.1989 9.03935 15.0661 8.91275C14.9333 8.78615 14.7532 8.71503 14.5655 8.71503C14.3777 8.71503 14.1976 8.78615 14.0648 8.91275C13.932 9.03935 13.8574 9.21105 13.8574 9.39009V17.1538C13.858 17.3326 13.9328 17.504 14.0654 17.6305C14.1981 17.757 14.3778 17.8283 14.5655 17.8288Z" fill="#429EFF"/>
</svg>
